<?xml version="1.0" standalone="no"?>
<!DOCTYPE svg PUBLIC "-//W3C//DTD SVG 20010904//EN"
 "http://www.w3.org/TR/2001/REC-SVG-20010904/DTD/svg10.dtd">
<svg version="1.0" xmlns="http://www.w3.org/2000/svg"
 width="260.000000pt" height="260.000000pt" viewBox="0 0 260.000000 260.000000"
 preserveAspectRatio="xMidYMid meet">
<metadata>
Created by potrace 1.11, written by Peter Selinger 2001-2013
</metadata>
<g transform="translate(0.000000,260.000000) scale(0.100000,-0.100000)"
fill="#000000" stroke="none">
<path d="M1048 2580 c-461 -97 -829 -423 -977 -866 -106 -314 -78 -689 71
-989 116 -232 327 -447 556 -568 363 -191 821 -197 1182 -15 314 158 546 424
654 748 48 143 66 257 66 415 0 362 -123 660 -379 916 -191 191 -403 306 -660
359 -133 27 -386 27 -513 0z m582 -556 l85 -29 3 -101 3 -101 -84 33 c-46 19
-118 38 -159 44 -217 30 -362 -65 -439 -287 l-18 -53 235 0 234 0 0 -80 0 -80
-244 0 -243 0 -7 -31 c-8 -40 -8 -108 0 -148 l6 -31 244 0 244 0 0 -80 0 -80
-235 0 -235 0 6 -27 c14 -56 63 -151 99 -191 105 -117 310 -140 514 -57 l81
32 0 -97 0 -98 -57 -21 c-137 -50 -311 -65 -446 -36 -202 43 -350 198 -405
423 l-17 72 -92 0 -93 0 0 80 0 80 83 0 82 0 2 105 3 105 -85 0 -85 0 0 80 0
79 97 3 96 3 17 64 c48 175 170 330 314 402 104 51 145 59 291 55 100 -3 134
-8 205 -32z"/>
</g>
</svg>
